<?xml version="1.0" encoding="utf-8"?>
<!-- Generator: Adobe Illustrator 26.5.0, SVG Export Plug-In . SVG Version: 6.00 Build 0)  -->
<svg version="1.1" id="Layer_1" xmlns="http://www.w3.org/2000/svg" xmlns:xlink="http://www.w3.org/1999/xlink" x="0px" y="0px"
	 viewBox="0 0 113.72 113.81" enable-background="new 0 0 113.72 113.81" xml:space="preserve">
<g>
	<path fill="#BA0C2F" d="M60.13,105.9c3.64-2.08,6.78-4.71,10.39-5.79c8.17-2.44,12.78-8.25,16.48-15.27
		c0.48-0.91,1.05-1.76,1.99-3.31c-0.82,14.94-10.72,26.62-25.36,30.53c-4.76,1.27-9.6,2.46-14.59,1.27
		c-1.26-0.3-2.55-0.62-3.69-1.19c-3.7-1.83-7.55-2.54-11.81-1.78c-2.36-4.64-6.39-7.13-11.19-8.92c-2.24-0.84-4.42-2.55-5.95-4.41
		C4.97,83.2,5.46,69.66,13.36,55.06c0.12-0.23,0.4-0.37,0.66-0.61c1.02,1.59,2.06,3.13,2.98,4.74c0.28,0.48,0.38,1.23,0.24,1.77
		c-2.82,10.39,1.42,18.07,9.16,24.54c1.64,1.37,2.99,3.17,4.16,4.98c2.07,3.2,4.94,5.23,8.39,6.64
		C46.17,100.08,53.37,103.09,60.13,105.9z"/>
	<path fill="#BA0C2F" d="M69.4,84.11c-4.54,4.15-9.48,5.32-14.5,5.46c-5.17,0.15-10.44-0.19-15.55-1.04
		c-7.56-1.26-13.21-5.77-17.39-12.09c-3.07-4.64-3.77-9.82-1.86-14.97c2.41-6.49,2.83-13.24,3.76-19.96c0.57-4.1,1.39-8.32,3-12.1
		c3.34-7.83,11.14-11.13,20.88-9.5c1.46,0.24,2.9,0.58,4.61,0.93c-2.96,3.58-5.31,7-9.63,9.14c-11,5.47-16.38,17.21-14.32,29.27
		c2.26,13.23,11.13,22.4,23.9,24.24c4.3,0.62,8.72,0.44,13.09,0.61C66.49,84.15,67.58,84.11,69.4,84.11z"/>
	<path fill="#BA0C2F" d="M66.04,59.92c-0.58,1.29-2.39,1.07-4.08,0.59c-4.73-1.32-10.14-8.99-6.91-15.17
		c3.93-7.51,11.63-10.6,19.52-7.59c8.4,3.2,12.06,9.55,12.41,18.09c0.13,3.23-0.04,6.56-0.63,9.73
		c-2.08,11.09-12.46,17.75-23.54,15.21c-8.98-2.06-15.62-6.85-18.01-16.26c-0.17-0.68-0.2-1.41-0.3-2.07
		c2.8,2.42,5.32,5.09,8.3,7.07c5.14,3.41,10.81,5.09,16.97,2.86c6.07-2.2,8.78-6.95,9.3-13.08c0.47-5.53-1.13-10.35-5.81-13.74
		c-2.86-2.08-5.91-2.1-8.91-0.27c-2.83,1.73-4.52,4.47-3.44,7.54C61.77,55.28,64.03,57.24,66.04,59.92z"/>
	<path fill="#BA0C2F" d="M107.22,56.39c5.06,3.38,6.63,7.86,6.5,13.01c-0.15,5.89-2.65,11.06-4.83,16.45
		c-2,4.94-5.69,8.41-8.54,12.55c-2.44,3.54-5.58,6.76-8.94,9.47c-4.25,3.44-9.38,4.04-15.19,2.61c8.67-6.37,13.57-14.67,15.49-24.58
		c0.67-3.46,2.09-5.27,5.2-6.87c7.17-3.69,9.61-10.49,10.29-18.08C107.32,59.67,107.22,58.36,107.22,56.39z"/>
	<path fill="#BA0C2F" d="M87.44,72.57c0.62-4.9,1.27-9.99,1.92-15.09c0.05-0.37,0.03-0.78,0.19-1.09c5.21-9.97,1.4-18.85-4.34-26.68
		c-4.84-6.61-12.51-7.48-20.32-5.9c-4.26,0.86-8.51,1.78-12.93,2.71c3.61-7.6,15.22-13.83,23.61-12.85
		c10.07,1.17,18.44,8.45,20.29,17.71c0.2,0.99,0.23,2.04,0.21,3.06c-0.18,8.38-0.32,16.76-0.62,25.13
		c-0.21,5.71-2.72,10.16-7.86,12.95C87.37,72.64,87.12,72.69,87.44,72.57z"/>
	<path fill="#BA0C2F" d="M107.72,53.24c-0.38-0.81-0.93-1.59-1.12-2.45c-1.34-5.96-3.46-11.57-7.06-16.57
		c-0.4-0.56-0.59-1.33-0.7-2.03C97.02,20.58,86.54,11.13,74.6,10.96c-3.4-0.05-5.53-1.28-7.55-3.82c8.46-4.33,16.87-3.91,25.19,0.04
		c8.81,4.18,14.2,10.93,14.94,20.93c0.01,0.19,0,0.38,0.04,0.56c0.92,4.11,2.49,8.06,0.86,12.5c-0.57,1.55,0.82,3.74,1.01,5.67
		c0.2,2.02,0.05,4.08,0.05,6.13C108.66,53.05,108.19,53.15,107.72,53.24z"/>
	<path fill="#BA0C2F" d="M19.07,55.88c-6.71-10.3-9.09-23.47,0.9-32.97c2.98-2.84,6.5-5.35,10.18-7.17
		c6.9-3.4,13.93-6.77,21.77-7.44c2.94-0.25,5.97-0.13,8.88,0.34c2.09,0.34,4.05,1.53,6.02,2.32c-4,2.49-7.6,4.81-11.29,6.97
		c-0.66,0.38-1.69,0.21-2.54,0.15c-4.62-0.3-9.32-1.34-13.84-0.84c-8.83,0.99-14.27,6.69-16.34,15.05
		c-1.51,6.1-1.94,12.47-2.87,18.71C19.72,52.45,19.42,53.9,19.07,55.88z"/>
	<path fill="#BA0C2F" d="M55.49,28.28c-2.68,2.25-4.74,4.02-6.85,5.75c-4.08,3.33-6.18,7.92-6.49,12.87
		c-0.38,6.16-0.38,12.49,0.64,18.55c1.33,7.92,6.93,12.89,14.44,16.13c-16.14-0.42-24.99-10.25-26.58-24.11
		C28.91,42.23,38.85,30.58,55.49,28.28z"/>
	<path fill="#BA0C2F" d="M49.66,36.42c0.7,2.97,1.43,5.83,2.02,8.71c0.2,0.96,0.17,2,0.05,2.99c-0.77,6.48,4.44,13.81,10.86,14.89
		c1.33,0.22,2.99-0.15,4.19-0.82c2.17-1.2,4.23-7.27,3.21-9.56c-0.49-1.09-1.89-2.43-2.92-2.46c-1.35-0.05-2.73,1.09-4.48,1.88
		c0.8-1.43,1.31-3.56,2.61-4.32c1.55-0.9,3.79-0.64,5.73-0.81c0.31-0.03,0.67,0.3,0.98,0.51c4.05,2.68,5.82,8.67,4.31,14.64
		C75,66.95,71.13,70.3,66.17,70.8c-8.63,0.86-19.62-6.37-21.89-14.76C42.64,50.02,45.5,38.7,49.66,36.42z"/>
	<path fill="#BA0C2F" d="M24.34,14.77c-2.33,2.03-4.55,3.7-6.46,5.67c-7,7.25-9.87,15.62-6.58,25.55c0.94,2.83,0.92,5.33-0.94,8.08
		c-1.92,2.85-2.97,6.29-4.46,9.61c-2.82-4.9-5.96-9.54-4.69-15.97c0.6-3.02-0.39-6.42-1.04-9.57c-0.31-1.5-0.33-2.36,0.71-3.68
		c1.75-2.23,3.28-4.75,4.33-7.37c3.05-7.63,9.79-12.5,17.83-12.49C23.38,14.61,23.71,14.69,24.34,14.77z"/>
	<path fill="#BA0C2F" d="M84.73,83.13c-3.45,6.45-7.15,11.83-14.39,14.06c-3.74,1.15-7.09,3.58-11.1,5.68
		c-7.53-4.94-17.53-6.29-25.2-12.58c3.25,0.65,6.48,1.5,9.77,1.9c6.23,0.77,12.46,0.74,18.57-1.04c3.82-1.12,7.25-2.87,9.84-6.05
		c0.45-0.55,1.34-0.93,2.08-1.01C77.62,83.71,80.95,83.46,84.73,83.13z"/>
	<path fill="#BA0C2F" d="M53.56,42.81c-2.06-5.76-0.78-10.38,3.93-13.41c5.65-3.64,11.86-4.77,18.42-3.01
		c4.76,1.28,8.2,4.18,10.21,8.76c2.3,5.26,3.81,10.64,2.92,16.6c-1.38-8.9-7.01-13.88-15.04-16.63
		C66.3,32.49,60.02,34.84,53.56,42.81z"/>
	<path fill="#BA0C2F" d="M98.62,38.97c5.19,8.48,7.22,17.33,4.93,26.85c-1.47,6.14-5.18,10.53-11.27,12.4
		c-4.22,1.3-8.63,2.02-12.95,3c-0.12-0.3-0.25-0.61-0.37-0.91c1.89-1.11,3.67-2.54,5.69-3.29c9.23-3.4,13.89-9.81,13.69-19.73
		c-0.1-4.93-0.07-9.87-0.05-14.8C98.31,41.32,98.51,40.15,98.62,38.97z"/>
	<path fill="#BA0C2F" d="M32.36,10.69c1.78-4.69,5.02-7.33,9.79-7.72c6.2-0.5,12.4-0.63,18.46-2.49c3.29-1.01,6.79-0.35,9.97,1.44
		c-2.33,1.15-4.47,2.24-6.64,3.27c-0.47,0.23-1.07,0.51-1.53,0.41c-9.8-2.24-18.76,0.62-27.58,4.45c-0.59,0.26-1.21,0.46-1.82,0.67
		C32.95,10.74,32.85,10.71,32.36,10.69z"/>
</g>
</svg>
