<?xml version="1.0" standalone="no"?>
<!DOCTYPE svg PUBLIC "-//W3C//DTD SVG 20010904//EN"
 "http://www.w3.org/TR/2001/REC-SVG-20010904/DTD/svg10.dtd">
<svg version="1.0" xmlns="http://www.w3.org/2000/svg"
 width="476.000000pt" height="524.000000pt" viewBox="0 0 476.000000 524.000000"
 preserveAspectRatio="xMidYMid meet">

<g transform="translate(0.000000,524.000000) scale(0.100000,-0.100000)"
fill="#000000" stroke="none">
<path d="M600 4786 l0 -75 53 -28 52 -28 3 -820 2 -821 -55 -27 -55 -27 0 -75
0 -75 1083 0 c653 0 1106 4 1141 10 202 33 375 205 412 410 17 97 20 1083 3
1193 -32 209 -192 379 -398 423 -54 11 -259 14 -1153 14 l-1088 0 0 -74z
m1772 -206 c50 -14 97 -55 119 -105 17 -37 19 -79 19 -630 0 -549 -2 -593 -19
-630 -23 -51 -81 -102 -123 -110 -18 -3 -242 -4 -498 -3 l-465 3 -3 730 c-1
402 0 736 3 743 6 16 909 18 967 2z"/>
<path d="M1002 1778 c-64 -107 -209 -367 -218 -392 -6 -16 -3 -18 27 -11 19 3
42 9 52 11 27 8 21 -12 -44 -146 -59 -121 -149 -317 -149 -324 0 -1 24 5 53
15 28 10 53 15 54 11 2 -4 -35 -101 -81 -217 -47 -115 -83 -211 -82 -212 2 -2
21 3 44 11 181 64 456 80 647 37 55 -13 138 -38 185 -55 104 -40 155 -53 245
-61 127 -13 294 27 413 97 87 51 211 180 256 266 21 41 36 75 34 77 -5 5 -281
115 -288 115 -4 0 -14 -16 -23 -35 -9 -19 -35 -55 -58 -80 -108 -117 -268
-152 -425 -94 -82 31 -181 130 -215 214 -36 92 -33 209 8 297 70 150 193 229
354 229 93 0 168 -26 240 -83 43 -34 100 -106 112 -142 2 -6 62 14 148 48 79
33 146 60 147 62 2 1 -13 35 -35 76 -57 110 -182 231 -293 286 -114 55 -201
75 -330 76 -191 0 -348 -64 -484 -196 -44 -42 -81 -76 -82 -75 -1 1 -38 64
-82 140 l-80 138 -50 -83z"/>
<path d="M3205 1854 c-11 -2 -45 -9 -75 -15 -74 -14 -223 -88 -289 -142 -150
-125 -235 -295 -255 -508 l-5 -57 327 -132 c180 -73 340 -138 357 -144 28 -12
54 -3 380 129 l350 142 -1 84 c-2 268 -214 531 -499 619 -67 20 -243 35 -290
24z m65 -129 c23 -25 24 -25 44 -7 37 34 46 35 56 7 11 -30 -5 -80 -35 -105
-16 -14 -17 -12 -10 20 l7 35 -18 -24 -17 -24 -19 24 -19 24 7 -27 c8 -38 -11
-36 -31 2 -16 31 -19 58 -9 84 8 22 17 20 44 -9z m430 -64 c0 -43 -35 -95 -70
-106 -18 -6 -17 -9 15 -39 36 -35 47 -76 20 -76 -28 0 -71 28 -83 54 -11 25 0
38 13 16 3 -5 11 -10 17 -10 6 0 3 9 -7 20 -16 18 -17 21 -1 44 26 40 19 52
-13 22 l-29 -28 -5 28 c-4 28 -5 28 -12 7 -4 -13 -11 -20 -16 -17 -14 8 -11
78 5 99 15 21 46 14 46 -10 0 -17 16 -20 26 -4 7 12 62 38 82 39 7 0 12 -14
12 -39z m-727 10 c36 -18 36 -18 50 3 14 21 15 21 36 2 22 -20 30 -89 11 -101
-5 -3 -10 3 -10 14 0 12 -4 21 -10 21 -5 0 -10 -12 -10 -27 l0 -26 -25 23
c-31 29 -42 21 -20 -14 21 -32 6 -34 -41 -6 -21 14 -39 36 -49 65 -26 67 -3
82 68 46z m199 -1 c27 -20 55 -76 44 -87 -3 -3 -15 2 -26 12 -24 22 -26 9 -4
-23 18 -26 13 -27 -26 -7 -33 17 -60 61 -60 100 0 20 5 25 24 25 13 0 35 -9
48 -20z m328 -13 c0 -40 -21 -72 -61 -92 -33 -18 -35 -14 -13 20 19 29 9 33
-18 8 -24 -21 -31 -13 -18 23 13 36 58 74 88 74 18 0 22 -5 22 -33z m-589 -88
l24 -20 -27 5 c-33 8 -38 -9 -5 -19 22 -6 22 -6 -5 -16 -49 -19 -136 37 -97
62 26 16 86 10 110 -12z m429 -9 c11 -11 20 -28 20 -39 0 -26 -38 -71 -61 -71
-27 0 -59 36 -59 67 0 57 60 83 100 43z m441 10 c28 -16 23 -37 -12 -56 -21
-10 -43 -14 -65 -9 -37 6 -47 25 -14 25 11 0 20 4 20 9 0 5 -9 7 -20 4 -11 -3
-20 -1 -20 5 0 28 73 42 111 22z m-817 -62 c-20 -23 -21 -23 32 -2 15 6 15 4
0 -24 -16 -32 -61 -62 -91 -62 -39 0 1 92 49 110 29 11 33 4 10 -22z m216 -28
c58 -33 112 -60 120 -60 8 0 64 27 124 60 113 62 162 77 85 26 -70 -47 -137
-115 -149 -152 -8 -24 -10 -72 -5 -148 l7 -113 -63 -10 c-35 -6 -65 -9 -67 -8
-2 2 2 31 8 64 17 94 16 191 -3 227 -18 35 -86 100 -146 139 -22 15 -41 29
-41 31 0 13 38 -3 130 -56z m-100 -16 c11 -28 2 -64 -16 -64 -18 0 -44 40 -44
68 0 22 2 23 16 11 15 -12 16 -11 9 11 -7 23 -6 24 10 10 9 -8 21 -24 25 -36z
m463 14 c-5 -23 -5 -23 10 -3 16 20 16 19 17 -7 0 -15 -11 -39 -25 -55 -21
-24 -26 -26 -35 -13 -14 22 -12 52 6 78 20 28 34 28 27 0z m348 -80 c24 3 27
0 33 -44 3 -26 6 -84 6 -130 l0 -82 -112 -44 c-110 -43 -114 -44 -153 -30 -22
8 -95 17 -162 19 -89 4 -123 9 -123 18 0 16 32 25 88 25 40 0 42 1 42 30 0 23
5 30 19 30 14 0 21 8 23 28 3 24 7 27 38 27 33 0 35 -2 38 -38 6 -67 22 -28
22 54 l0 79 30 0 c17 0 30 5 30 10 0 6 14 10 30 10 l30 0 0 -90 c0 -53 4 -90
10 -90 6 0 10 37 10 92 0 89 1 93 27 114 16 12 32 19 38 16 5 -3 22 -5 36 -4z
m-1050 -144 c57 -57 67 -63 78 -50 12 14 18 12 52 -15 l39 -31 45 37 45 37 60
-52 c60 -52 61 -54 54 -93 -5 -33 -4 -39 9 -34 75 29 314 33 402 7 37 -12 38
-13 20 -27 -11 -7 -29 -11 -40 -8 -73 20 -175 27 -243 15 -39 -6 -74 -16 -77
-20 -3 -5 12 -14 32 -21 21 -6 56 -21 77 -31 33 -17 37 -22 23 -30 -12 -6 -34
-1 -80 21 -89 42 -194 69 -321 81 -94 9 -132 19 -246 62 -74 28 -139 55 -145
60 -5 5 20 38 65 83 41 41 77 75 79 75 3 0 35 -30 72 -66z m364 -259 c94 -28
165 -60 165 -75 0 -15 -12 -12 -76 16 -63 28 -167 53 -224 55 -19 0 -53 9 -75
20 l-40 19 82 -5 c45 -3 121 -17 168 -30z m364 21 c26 -17 -10 -24 -111 -20
-54 2 -109 6 -121 10 -21 7 -22 7 -2 15 25 11 215 6 234 -5z m-80 -35 c11 -7
9 -10 -8 -16 -24 -7 -61 2 -61 16 0 11 50 12 69 0z m-231 -47 c40 -14 69 -30
66 -35 -10 -16 -40 -9 -135 32 -87 37 -91 40 -48 35 25 -3 78 -17 117 -32z"/>
<path d="M2744 1258 c-19 -21 -19 -21 0 -11 16 9 27 6 55 -15 l36 -26 -34 37
c-19 20 -36 37 -36 37 -1 0 -10 -10 -21 -22z"/>
<path d="M1552 1231 l-102 -86 4 -47 c3 -27 14 -69 25 -94 l21 -46 106 94 c59
51 122 107 141 123 l35 30 -64 56 -64 57 -102 -87z"/>
<path d="M1870 1260 c-36 -33 -70 -59 -77 -60 -6 0 -13 -4 -15 -8 -1 -4 -61
-59 -133 -121 -71 -62 -132 -117 -134 -123 -5 -15 72 -83 122 -107 105 -51
209 -51 313 -1 96 47 172 156 181 259 l5 56 -96 83 c-53 45 -97 82 -98 82 -2
-1 -32 -27 -68 -60z"/>
<path d="M2594 1034 c11 -71 42 -160 83 -234 48 -87 178 -216 268 -266 179
-99 393 -117 587 -50 197 69 363 235 429 430 35 105 47 171 28 164 -8 -3 -167
-68 -355 -143 l-341 -138 -337 137 c-185 75 -344 140 -353 143 -14 5 -15 0 -9
-43z m415 -285 c51 -18 36 -42 -27 -43 -43 -1 -59 -32 -35 -66 12 -18 22 -21
48 -16 40 8 57 -10 30 -31 -50 -36 -135 7 -135 69 0 50 19 71 86 98 1 0 15 -5
33 -11z m172 -12 c46 -35 50 -88 10 -128 -24 -24 -38 -29 -75 -29 l-46 0 0 85
0 85 48 0 c26 0 54 -6 63 -13z m174 -7 c27 -30 10 -72 -33 -85 -26 -7 -32 -14
-32 -37 0 -21 -5 -28 -20 -28 -18 0 -20 7 -20 85 l0 85 43 0 c31 0 49 -6 62
-20z m85 -10 c0 -27 3 -30 30 -30 27 0 30 3 30 30 0 23 4 30 20 30 18 0 20 -7
20 -85 0 -78 -2 -85 -20 -85 -16 0 -20 7 -20 35 0 32 -2 35 -29 35 -26 0 -30
-4 -33 -32 -2 -25 -8 -34 -25 -36 -22 -3 -23 -1 -23 82 0 85 0 86 25 86 21 0
25 -5 25 -30z m258 13 c-2 -13 -14 -19 -41 -21 -44 -4 -50 -22 -7 -22 40 0 44
-37 5 -42 -40 -5 -34 -23 8 -26 29 -3 37 -7 37 -23 0 -17 -7 -19 -60 -19 l-60
0 0 85 0 85 61 0 c52 0 60 -2 57 -17z"/>
<path d="M3110 666 c0 -38 3 -46 19 -46 26 0 43 24 39 57 -2 22 -9 29 -30 31
-27 3 -28 2 -28 -42z"/>
<path d="M3290 695 c0 -10 7 -15 18 -13 21 4 19 22 -2 26 -10 2 -16 -3 -16
-13z"/>
<path d="M2190 520 c0 -5 4 -10 9 -10 5 0 12 -12 14 -27 l4 -28 2 28 c0 15 6
27 11 27 6 0 10 5 10 10 0 6 -11 10 -25 10 -14 0 -25 -4 -25 -10z"/>
<path d="M2305 511 c-7 -22 -9 -23 -20 -8 -17 24 -22 21 -27 -13 -3 -16 -1
-30 4 -30 4 0 8 5 8 11 0 8 4 8 14 0 11 -9 15 -9 19 1 4 10 8 10 16 -2 9 -13
11 -12 10 5 0 11 -4 29 -8 40 -8 19 -8 19 -16 -4z"/>
</g>
</svg>
