<svg version="1.1" id="University_of_Denver" xmlns="http://www.w3.org/2000/svg" x="0px" y="0px" viewBox="0 0 209.3 66.6" xml:space="preserve">
	<style> path{fill:black;} </style>
		<!-- U --><path d="M4.3,2.8C4.2,1.8,4,1.3,3,1.1C2.8,1,2.2,1,2,1C1.9,1,1.8,0.9,1.8,0.8c0-0.2,0.2-0.2,0.5-0.2c1.4,0,3.2,0.1,3.5,0.1 s2.1-0.1,3-0.1c0.3,0,0.5,0.1,0.5,0.2S9.2,1,9.1,1C8.9,1,8.7,1,8.3,1.1C7.5,1.2,7.2,1.8,7.2,2.8s0,1.8,0,6.6v4.3 c0,4.4,1,6.3,2.3,7.5c1.5,1.4,2.9,1.7,4.6,1.7c1.9,0,3.7-0.9,4.8-2.2c1.4-1.7,1.8-4.3,1.8-7.5V9.4c0-4.8,0-5.6-0.1-6.6 s-0.3-1.5-1.3-1.7C19.1,1,18.5,1,18.3,1c-0.1,0-0.2-0.1-0.2-0.2c0-0.2,0.2-0.2,0.5-0.2c1.4,0,3.1,0.1,3.2,0.1 c0.2,0,1.6-0.1,2.6-0.1c0.3,0,0.5,0.1,0.5,0.2S24.8,1,24.7,1c-0.2,0-0.4,0-0.8,0.1c-0.8,0.2-1.1,0.7-1.1,1.7 c-0.1,1-0.1,1.8-0.1,6.6v3.3c0,3.3-0.4,6.9-2.8,9.1c-2.2,2-4.5,2.3-6.3,2.3c-1,0-4.1-0.1-6.3-2.2c-1.5-1.4-2.7-3.6-2.7-8V9.4 C4.6,9.4,4.4,3.8,4.3,2.8z"/>
		<!-- N --><path d="M28,19.5c0.1,2.5,0.4,3.3,1.2,3.5c0.6,0.2,1.3,0.2,1.5,0.2s0.2,0.1,0.2,0.2c0,0.2-0.2,0.2-0.5,0.2c-1.7,0-3-0.1-3.2-0.1 c-0.3,0-1.6,0.1-2.9,0.1c-0.3,0-0.5,0-0.5-0.2c0-0.1,0.1-0.2,0.2-0.2c0.3,0,0.8,0,1.3-0.2c0.8-0.2,0.9-1.1,0.9-3.9V1.6 c0-1.2,0.1-1.5,0.3-1.5c0.2,0,0.8,0.7,1.1,1c0.5,0.5,5,5.4,9.7,10.5c3,3.2,6.3,6.9,7.3,8L44.3,4.1c0-2-0.2-2.7-1.2-2.9 C42.6,1.1,41.9,1,41.6,1c-0.2,0-0.3-0.1-0.3-0.2c0-0.2,0.3-0.2,0.6-0.2c1.4,0,2.8,0.1,3.2,0.1c0.3,0,1.3-0.1,2.6-0.1 c0.3,0,0.5,0,0.5,0.2c0,0.1-0.1,0.2-0.3,0.2c-0.1,0-0.4,0-0.7,0.1c-1,0.2-1.1,0.9-1.1,2.7L46,21.7c0,2-0.1,2.2-0.3,2.2 s-0.6-0.3-2.2-2c-0.3-0.3-4.7-4.8-8-8.3c-3.5-3.8-7-7.7-8-8.8L28,19.5z"/>
		<!-- I --><path d="M54.6,14.7c0,2.9,0,5.3,0.1,6.6c0.1,0.9,0.3,1.5,1.2,1.7c0.4,0.1,1.1,0.1,1.4,0.1c0.2,0,0.2,0.1,0.2,0.2 c0,0.2-0.1,0.2-0.5,0.2c-1.7,0-3.6-0.1-3.8-0.1c-0.1,0-2.1,0.1-3,0.1c-0.3,0-0.5-0.1-0.5-0.2c0-0.1,0.1-0.2,0.2-0.2 c0.3,0,0.6-0.1,0.9-0.1c0.6-0.1,0.8-0.8,0.9-1.7c0.2-1.3,0.2-3.7,0.2-6.6V9.3c0-4.8,0-5.6-0.1-6.6s-0.4-1.6-1-1.7 c-0.3-0.1-0.7-0.1-0.9-0.1c-0.1,0-0.2-0.1-0.2-0.2c0-0.2,0.2-0.2,0.5-0.2c1,0,2.9,0.1,3.1,0.1c0.2,0,2.1-0.1,3-0.1 c0.3,0,0.5,0.1,0.5,0.2s-0.1,0.2-0.2,0.2c-0.2,0-0.4,0-0.8,0.1c-0.8,0.2-1.1,0.7-1.1,1.7c-0.1,1-0.1,1.8-0.1,6.6L54.6,14.7 L54.6,14.7z"/>
		<!-- V --><path d="M70.6,19.9c1.8-4.1,5.9-14.7,6.5-16.9c0.1-0.5,0.3-0.9,0.3-1.2c0-0.2-0.1-0.6-0.4-0.7C76.6,1,76.2,1,75.9,1 c-0.2,0-0.3,0-0.3-0.2s0.2-0.2,0.7-0.2c1.2,0,2.6,0.1,3,0.1c0.2,0,1.5-0.1,2.4-0.1c0.3,0,0.5,0.1,0.5,0.2C82.2,1,82.1,1,81.8,1 c-0.2,0-0.9,0-1.5,0.4c-0.4,0.3-0.8,0.8-1.7,2.9c-0.3,0.9-1.9,4.5-3.4,8.3c-1.9,4.5-3.2,7.7-3.9,9.2c-0.9,1.8-1,2.3-1.3,2.3 c-0.4,0-0.5-0.4-1.1-1.9L61.4,3.5c-0.7-1.7-1.1-2-2.2-2.3c-0.5-0.1-1-0.1-1.2-0.1S57.8,1,57.8,0.9c0-0.2,0.3-0.2,0.8-0.2 c1.5,0,3.2,0.1,3.6,0.1c0.3,0,1.7-0.1,2.8-0.1c0.6,0,0.8,0.1,0.8,0.2c0,0.2-0.1,0.2-0.3,0.2c-0.3,0-0.9,0-1.2,0.2 s-0.4,0.4-0.4,0.6c0,0.4,0.4,1.3,0.8,2.5L70.6,19.9z"/>
		<!-- E --><path d="M85.7,2.8c-0.1-1-0.3-1.5-1.3-1.7C84.1,1,83.6,1,83.4,1c-0.1,0-0.2-0.1-0.2-0.2c0-0.2,0.2-0.2,0.5-0.2 c1.4,0,3.3,0.1,3.5,0.1s7.2,0,7.9,0c0.6,0,1.1-0.1,1.3-0.1c0.1,0,0.3-0.2,0.4-0.2c0.1,0,0.1,0.1,0.1,0.3c0,0.2-0.1,0.6-0.2,1.4 c0,0.3-0.1,1.7-0.2,2c0,0.1-0.1,0.3-0.2,0.3c-0.2,0-0.2-0.1-0.2-0.4c0-0.2,0-0.7-0.2-1.1c-0.2-0.5-0.5-0.9-2.2-1 c-0.5-0.1-4.8-0.1-5.1-0.1c-0.1,0-0.2,0.1-0.2,0.3v8.4c0,0.2,0,0.3,0.2,0.3c0.4,0,5.1,0,5.8-0.1s1.2-0.1,1.4-0.4 c0.2-0.2,0.3-0.4,0.5-0.4c0.1,0,0.1,0.1,0.1,0.2c0,0.2-0.1,0.7-0.2,1.7c-0.1,0.6-0.1,1.7-0.1,1.9c0,0.2,0,0.6-0.2,0.6 s-0.2-0.1-0.2-0.3c0-0.3,0-0.6-0.1-1s-0.4-0.9-1.6-1.1c-0.8-0.1-4.8-0.2-5.3-0.2c-0.1,0-0.2,0.1-0.2,0.2v2.7c0,1,0,4.6,0,5.2 c0.1,2.1,1.5,2.5,4.5,2.5c0.8,0,2.1,0,2.9-0.3c0.8-0.3,1.2-0.9,1.4-2.2c0.1-0.3,0.1-0.5,0.3-0.5s0.2,0.2,0.2,0.5 c0,0.2-0.2,2.3-0.4,3c-0.2,0.8-0.5,0.8-1.6,0.8c-4.6,0-7.6-0.2-8.5-0.2c-0.2,0-2.1,0.1-3,0.1c-0.3,0-0.5-0.1-0.5-0.2 c0-0.1,0.1-0.2,0.2-0.2c0.3,0,0.6-0.1,0.9-0.1c0.6-0.1,0.8-0.8,0.9-1.7C86,20,86,17.6,86,14.7V9.4C86,9.4,85.8,3.8,85.7,2.8z"/>
		<!-- R --><path d="M101,9.4c0-4.8,0-5.6-0.1-6.6s-0.3-1.5-1.3-1.7C99.4,1,98.8,1,98.6,1c-0.1,0-0.2-0.1-0.2-0.2c0-0.2,0.1-0.2,0.5-0.2 c1.4,0,3.3,0.1,3.4,0.1c0.3,0,2.6-0.1,3.6-0.1c1.9,0,4,0.2,5.6,1.3c0.8,0.6,2.1,2.1,2.1,4.2c0,2.3-1,4.5-3.7,7 c2.5,3.2,4.6,5.9,6.3,7.8c1.7,1.7,3,2.1,3.7,2.2c0.6,0.1,1,0.1,1.2,0.1s0.3,0.1,0.3,0.2c0,0.2-0.2,0.2-0.7,0.2h-2.2 c-1.7,0-2.5-0.2-3.3-0.6c-1.3-0.7-2.4-2.2-4.1-4.5c-1.3-1.7-2.7-3.7-3.3-4.5c-0.1-0.1-0.2-0.2-0.4-0.2l-3.8-0.1 c-0.2,0-0.2,0.1-0.2,0.2v0.7c0,2.9,0,5.3,0.2,6.6c0.1,0.9,0.3,1.5,1.2,1.7c0.4,0.1,1.1,0.1,1.4,0.1c0.2,0,0.3,0.1,0.3,0.2 c0,0.2-0.2,0.2-0.5,0.2c-1.7,0-3.6-0.1-3.8-0.1c0,0-2,0.1-2.9,0.1c-0.3,0-0.5-0.1-0.5-0.2c0-0.1,0.1-0.2,0.2-0.2 c0.3,0,0.6-0.1,0.9-0.1c0.6-0.1,0.8-0.8,0.9-1.7c0.2-1.3,0.2-3.7,0.2-6.6L101,9.4L101,9.4z M103.7,12c0,0.2,0.1,0.3,0.2,0.4 c0.5,0.3,1.9,0.5,3.2,0.5c0.7,0,1.6-0.1,2.3-0.6c1.1-0.7,1.9-2.4,1.9-4.7c0-3.8-2-6.1-5.3-6.1c-0.9,0-1.8,0.1-2,0.2 c-0.1,0.1-0.2,0.2-0.2,0.4L103.7,12z"/>
		<!-- S --><path d="M120,23.2c-0.4-0.2-0.5-0.3-0.5-1.2c0-1.5,0.1-2.7,0.2-3.2c0-0.3,0.1-0.5,0.2-0.5c0.2,0,0.2,0.1,0.2,0.3 c0,0.3,0,0.7,0.1,1.1c0.5,2.2,2.5,3.1,4.5,3.1c2.9,0,4.4-2.1,4.4-4.1c0-2.1-0.9-3.3-3.5-5.5l-1.4-1.1c-3.2-2.7-4-4.5-4-6.6 c0-3.3,2.4-5.5,6.3-5.5c1.2,0,2.1,0.1,2.8,0.3c0.6,0.1,0.8,0.1,1.1,0.1c0.2,0,0.3,0.1,0.3,0.2c0,0.2-0.1,1.2-0.1,3.2 c0,0.5-0.1,0.7-0.2,0.7c-0.2,0-0.2-0.2-0.3-0.4c0-0.4-0.2-1.2-0.4-1.5s-1-1.6-3.8-1.6c-2.1,0-3.7,1.3-3.7,3.5 c0,1.7,0.8,2.8,3.7,5.1l0.8,0.7c3.6,2.8,4.5,4.7,4.5,7.2c0,1.3-0.5,3.6-2.6,5.1c-1.3,0.9-3,1.3-4.6,1.3 C122.6,24,121.2,23.8,120,23.2z"/>
		<!-- I --><path d="M137.2,14.7c0,2.9,0,5.3,0.2,6.6c0.1,0.9,0.3,1.5,1.2,1.7c0.4,0.1,1.1,0.1,1.4,0.1c0.2,0,0.2,0.1,0.2,0.2 c0,0.2-0.2,0.2-0.5,0.2c-1.7,0-3.6-0.1-3.8-0.1c-0.2,0-2.1,0.1-3,0.1c-0.3,0-0.5-0.1-0.5-0.2c0-0.1,0.1-0.2,0.2-0.2 c0.3,0,0.6-0.1,0.9-0.1c0.6-0.1,0.8-0.8,0.9-1.7c0.2-1.3,0.2-3.7,0.2-6.6V9.3c0-4.8,0-5.6-0.1-6.6s-0.4-1.6-1-1.7 c-0.3-0.1-0.7-0.1-0.9-0.1c-0.1,0-0.3-0.1-0.3-0.2c0-0.2,0.2-0.2,0.5-0.2c1,0,2.9,0.1,3.1,0.1c0.2,0,2.1-0.1,3-0.1 c0.3,0,0.5,0.1,0.5,0.2s-0.1,0.2-0.2,0.2c-0.2,0-0.4,0-0.8,0.1c-0.8,0.2-1.1,0.7-1.1,1.7c-0.1,1-0.1,1.8-0.1,6.6L137.2,14.7 L137.2,14.7z"/>
		<!-- T --><path d="M151.4,21.3c0.1,0.9,0.3,1.5,1.2,1.7c0.4,0.1,1.1,0.1,1.4,0.1c0.2,0,0.2,0.1,0.2,0.2c0,0.2-0.2,0.2-0.5,0.2 c-1.7,0-3.6-0.1-3.8-0.1c-0.1,0-2.1,0.1-3,0.1c-0.3,0-0.5-0.1-0.5-0.2c0-0.1,0.1-0.2,0.2-0.2c0.3,0,0.7-0.1,0.9-0.1 c0.6-0.1,0.8-0.8,0.9-1.7c0.2-1.3,0.2-3.7,0.2-6.6V1.8l-4.5,0.1c-1.9,0-2.6,0.2-3.1,1c-0.3,0.5-0.4,0.7-0.5,1s-0.2,0.3-0.3,0.3 S140,4.1,140,3.9c0-0.3,0.6-2.9,0.7-3.2c0.1-0.2,0.2-0.6,0.3-0.6c0.2,0,0.5,0.3,1.3,0.4c0.9,0.1,2,0.2,2.4,0.2h11.4 c2,0,2.8-0.3,3-0.3c0.2,0,0.2,0.2,0.2,0.4c0,0.9-0.1,3-0.1,3.4c0,0.3-0.1,0.4-0.2,0.4c-0.2,0-0.2-0.1-0.2-0.5V3.8 c-0.1-0.9-0.8-1.6-3.8-1.7L151.2,2v12.7C151.2,14.7,151.3,20,151.4,21.3z"/>
		<!-- Y --><path d="M170.6,15.7c0-1.6-0.3-2.3-0.7-3.2c-0.2-0.5-4.3-7.2-5.4-8.8c-0.8-1.1-1.5-1.9-2.1-2.3c-0.5-0.3-1-0.5-1.3-0.5 c-0.2,0-0.3-0.1-0.3-0.2s0.1-0.2,0.4-0.2c0.6,0,2.9,0.1,3,0.1c0.2,0,1.4-0.1,2.6-0.1c0.4,0,0.4,0.1,0.4,0.2S167,0.9,166.8,1 c-0.3,0.1-0.4,0.3-0.4,0.5c0,0.4,0.2,0.7,0.4,1.2c0.5,0.9,5.1,8.8,5.6,9.6c0.6-1.3,4.5-8,5.1-9c0.4-0.6,0.5-1.2,0.5-1.6 s-0.1-0.8-0.5-0.8c-0.3-0.1-0.5-0.2-0.5-0.3c0-0.1,0.2-0.2,0.5-0.2c0.8,0,1.8,0.1,2,0.1s2.4-0.1,3-0.1c0.2,0,0.4,0.1,0.4,0.2 s-0.1,0.2-0.4,0.2s-0.9,0.1-1.4,0.4c-0.6,0.4-0.9,0.7-1.6,1.6c-1,1.2-5.3,8.4-5.8,9.7c-0.5,1.1-0.5,2-0.5,3v2.6 c0,0.5,0,1.8,0.1,3.1c0,0.9,0.3,1.5,1.2,1.7c0.4,0.1,1.1,0.1,1.4,0.1c0.2,0,0.2,0.1,0.2,0.2c0,0.2-0.1,0.2-0.5,0.2 c-1.7,0-3.6-0.1-3.8-0.1c-0.1,0-2.1,0.1-3,0.1c-0.3,0-0.5-0.1-0.5-0.2c0-0.1,0.1-0.2,0.2-0.2c0.3,0,0.6-0.1,0.9-0.1 c0.6-0.1,0.9-0.8,0.9-1.7C170.4,19.9,170.6,15.7,170.6,15.7z"/>

		<!-- O --><path d="M192,12.6c0,1-0.3,2-0.8,3s-1.3,1.7-2.2,2.3c-0.9,0.6-1.9,0.8-2.7,0.8c-0.9,0-1.6-0.3-2.2-0.9c-0.6-0.6-0.9-1.3-0.9-2.3 s0.3-2,0.8-2.9c0.6-1,1.3-1.8,2.2-2.3c0.9-0.6,1.8-0.9,2.7-0.9c0.9,0,1.6,0.3,2.2,0.9C191.7,11,192,11.7,192,12.6z M190.3,12 c0-0.6-0.2-1.1-0.5-1.4s-0.7-0.5-1.2-0.5c-1,0-1.9,0.7-2.7,2.1c-0.8,1.4-1.2,2.8-1.2,4.2c0,0.6,0.2,1.1,0.5,1.5 c0.3,0.3,0.7,0.5,1.2,0.5c0.9,0,1.8-0.7,2.6-2.1C189.9,14.8,190.3,13.4,190.3,12z"/>
		<!-- F --><path d="M198,10.5h-1.4l-1.1,4.3c-0.5,1.9-1,3.4-1.5,4.4c-0.7,1.5-1.4,2.5-2.2,3.1c-0.6,0.4-1.2,0.7-1.8,0.7 c-0.4,0-0.7-0.1-1-0.4c-0.2-0.2-0.3-0.4-0.3-0.7c0-0.2,0.1-0.4,0.3-0.5c0.2-0.2,0.4-0.2,0.6-0.2s0.3,0.1,0.5,0.2 c0.1,0.1,0.2,0.3,0.2,0.4c0,0.1-0.1,0.3-0.2,0.4c-0.1,0.1-0.1,0.2-0.1,0.2c0,0.1,0,0.1,0.1,0.1c0.1,0.1,0.2,0.1,0.3,0.1 c0.3,0,0.6-0.1,0.9-0.3s0.6-0.4,0.8-0.8c0.3-0.4,0.5-0.9,0.7-1.5c0.1-0.3,0.3-1.2,0.7-2.7l1.7-6.7h-1.7l0.1-0.7 c0.6,0,0.9,0,1.2-0.1c0.2-0.1,0.4-0.2,0.6-0.4c0.2-0.2,0.4-0.6,0.7-1.2c0.4-0.8,0.8-1.4,1.1-1.8c0.5-0.6,1-1,1.6-1.3 c0.5-0.3,1-0.4,1.5-0.4s0.9,0.1,1.2,0.4c0.3,0.3,0.5,0.5,0.5,0.8c0,0.2-0.1,0.4-0.2,0.6c-0.2,0.2-0.4,0.2-0.6,0.2 s-0.4-0.1-0.5-0.2s-0.2-0.2-0.2-0.4c0-0.1,0-0.2,0.1-0.4c0.1-0.1,0.1-0.3,0.1-0.3c0-0.1,0-0.2-0.1-0.2c-0.1-0.1-0.2-0.1-0.4-0.1 c-0.4,0-0.8,0.1-1.1,0.4c-0.4,0.3-0.8,0.9-1.2,1.6c-0.2,0.4-0.5,1.4-1,2.9h1.3L198,10.5z"/>
			
		<!-- D --><path d="M4.3,31.4c-0.1-1.7-0.5-2.5-2.2-2.9c-0.4-0.1-1.3-0.1-1.7-0.1c-0.2,0-0.4-0.1-0.4-0.3c0-0.3,0.3-0.4,0.8-0.4 c2.3,0,5.4,0.1,5.7,0.1c0.6,0,3.8-0.1,6.8-0.1c5,0,14.2-0.5,20.2,5.8c2.5,2.6,4.9,6.8,4.9,12.8c0,6.4-2.6,11.2-5.4,14.2 c-2.2,2.3-6.7,5.8-15.3,5.8c-4.3,0-10.7-0.6-11.2-0.6c-0.2,0-3.4,0.2-4.9,0.2c-0.5,0-0.8-0.1-0.8-0.4c0-0.2,0.1-0.3,0.4-0.3 c0.5,0,1.1-0.1,1.5-0.2c1-0.2,1.3-1.3,1.5-2.8c0.3-2.1,0.3-6.1,0.3-10.9C4.5,51.3,4.4,33,4.3,31.4z M8.7,58.7 c0,1.3,0.2,3.3,0.6,3.8c0.7,1,2.6,2,8.6,2c4.7,0,9-1.7,12-4.7c2.6-2.6,4-7.4,4-12.1c0-6.4-2.8-10.5-4.8-12.7 c-4.7-5-10.5-5.7-16.5-5.7c-1,0-2.9,0.2-3.3,0.4c-0.5,0.2-0.6,0.5-0.6,1c0,1.7,0,6.9,0,10.7C8.7,41.4,8.6,57.8,8.7,58.7z"/>
		<!-- E --><path d="M42.2,42.3c0-7.9,0-9.3-0.1-10.9c-0.1-1.7-0.5-2.5-2.2-2.9c-0.4-0.1-1.3-0.1-1.7-0.1c-0.2,0-0.4-0.1-0.4-0.3 c0-0.3,0.2-0.4,0.8-0.4c2.3,0,5.4,0.1,5.7,0.1c0.4,0,12,0,13.1-0.1c1,0,1.8-0.2,2.2-0.2c0.2,0,0.4-0.3,0.7-0.3 c0.1,0,0.2,0.2,0.2,0.5c0,0.4-0.3,1-0.4,2.4c-0.1,0.5-0.2,2.7-0.2,3.3c0,0.2-0.2,0.6-0.4,0.6c-0.3,0-0.4-0.2-0.4-0.7 c0-0.4-0.1-1.2-0.3-1.8c-0.3-0.8-0.9-1.4-3.6-1.7c-0.9-0.1-7.9-0.1-8.5-0.1c-0.2,0-0.3,0.1-0.3,0.5v13.9c0,0.4,0,0.5,0.3,0.5 c0.6,0,8.4,0,9.6-0.1c1.2-0.1,1.9-0.2,2.4-0.7c0.3-0.4,0.5-0.7,0.8-0.7c0.2,0,0.2,0.1,0.2,0.4c0,0.3-0.2,1.2-0.4,2.8 c-0.1,1-0.2,2.9-0.2,3.2c0,0.4,0,1-0.4,1c-0.2,0-0.3-0.2-0.3-0.5c0-0.5,0-1-0.2-1.7s-0.7-1.6-2.6-1.8c-1.4-0.2-7.9-0.2-8.8-0.2 c-0.3,0-0.4,0.1-0.4,0.4v4.4c0,1.7-0.1,7.6,0,8.6c0.2,3.5,2.5,4.1,7.4,4.1c1.3,0,3.5,0,4.8-0.6s1.9-1.6,2.3-3.6 c0.1-0.6,0.2-0.8,0.5-0.8s0.3,0.4,0.3,0.8s-0.4,3.8-0.7,4.9c-0.3,1.3-0.8,1.3-2.7,1.3c-7.6,0-12.6-0.3-14-0.3 c-0.3,0-3.4,0.2-4.9,0.2c-0.6,0-0.8-0.1-0.8-0.4c0-0.2,0.1-0.3,0.4-0.3c0.5,0,1.1-0.1,1.5-0.2c1-0.2,1.3-1.3,1.5-2.8 c0.3-2.1,0.3-6.1,0.3-10.9L42.2,42.3z"/>
		<!-- N --><path d="M69.4,59c0.1,4.1,0.6,5.4,2,5.8c1,0.3,2.1,0.3,2.5,0.3c0.2,0,0.4,0.1,0.4,0.3c0,0.3-0.3,0.4-0.9,0.4 c-2.9,0-4.9-0.2-5.4-0.2s-2.6,0.2-4.8,0.2c-0.5,0-0.8,0-0.8-0.4c0-0.2,0.1-0.3,0.4-0.3c0.4,0,1.3-0.1,2.1-0.3 c1.3-0.4,1.5-1.8,1.5-6.4V29.5c0-2,0.2-2.5,0.5-2.5c0.4,0,1.3,1.1,1.8,1.6c0.8,0.9,8.3,9,16.1,17.3c5,5.3,10.5,11.5,12.1,13.2 l-0.6-25.6c-0.1-3.3-0.4-4.4-2-4.8c-0.9-0.2-2.1-0.3-2.5-0.3s-0.4-0.1-0.4-0.4c0-0.3,0.4-0.4,1-0.4c2.3,0,4.7,0.1,5.2,0.1 c0.6,0,2.2-0.1,4.3-0.1c0.5,0,0.9,0,0.9,0.4c0,0.2-0.2,0.4-0.6,0.4c-0.3,0-0.6,0-1.2,0.1c-1.7,0.4-1.9,1.5-1.9,4.5L99,62.5 c0,3.3-0.1,3.6-0.4,3.6c-0.4,0-1-0.6-3.7-3.2c-0.5-0.5-7.8-7.9-13.2-13.7c-5.8-6.3-11.5-12.6-13.2-14.5L69.4,59z"/>
		<!-- V --><path d="M125.4,59.7c2.9-6.8,9.7-24.3,10.8-28c0.2-0.8,0.4-1.5,0.4-1.9s-0.1-0.9-0.6-1.2c-0.6-0.2-1.4-0.2-1.9-0.2 c-0.3,0-0.5,0-0.5-0.3s0.3-0.4,1.1-0.4c2,0,4.3,0.1,4.9,0.1c0.3,0,2.5-0.1,3.9-0.1c0.6,0,0.9,0.1,0.9,0.4 c0,0.3-0.2,0.4-0.6,0.4s-1.5,0-2.4,0.6c-0.7,0.5-1.4,1.3-2.8,4.7c-0.6,1.4-3.1,7.5-5.6,13.7c-3.1,7.4-5.3,12.8-6.5,15.3 c-1.4,3-1.6,3.8-2.1,3.8c-0.6,0-0.8-0.7-1.8-3.1l-12.4-30.9c-1.1-2.8-1.9-3.4-3.6-3.9c-0.8-0.2-1.6-0.2-1.9-0.2 c-0.3,0-0.4-0.1-0.4-0.4c0-0.3,0.5-0.4,1.3-0.4c2.4,0,5.3,0.1,5.9,0.1c0.5,0,2.8-0.1,4.7-0.1c0.9,0,1.4,0.1,1.4,0.4 c0,0.3-0.2,0.4-0.5,0.4c-0.6,0-1.5,0.1-1.9,0.3c-0.6,0.3-0.7,0.7-0.7,1c0,0.7,0.6,2.2,1.4,4.2L125.4,59.7z"/>
		<!-- E --><path d="M150.5,31.4c-0.1-1.7-0.5-2.5-2.2-2.9c-0.4-0.1-1.3-0.1-1.7-0.1c-0.2,0-0.4-0.1-0.4-0.3c0-0.3,0.3-0.4,0.8-0.4 c2.3,0,5.4,0.1,5.7,0.1c0.3,0,12,0,13.1-0.1c1,0,1.8-0.2,2.2-0.2c0.2,0,0.4-0.3,0.7-0.3c0.1,0,0.2,0.2,0.2,0.5 c0,0.4-0.3,1-0.4,2.4c-0.1,0.5-0.1,2.7-0.2,3.3c-0.1,0.2-0.2,0.6-0.4,0.6c-0.3,0-0.4-0.2-0.4-0.7c0-0.4,0-1.2-0.3-1.8 c-0.4-0.8-0.9-1.4-3.6-1.7c-0.9-0.1-7.9-0.1-8.5-0.1c-0.2,0-0.3,0.1-0.3,0.5v13.9c0,0.4,0,0.5,0.3,0.5c0.6,0,8.4,0,9.6-0.1 s1.9-0.2,2.4-0.7c0.4-0.4,0.6-0.7,0.8-0.7c0.2,0,0.3,0.1,0.3,0.4c0,0.3-0.3,1.2-0.4,2.8c-0.1,1-0.2,2.9-0.2,3.2 c0,0.4,0,1-0.4,1c-0.2,0-0.3-0.2-0.3-0.5c0-0.5,0-1-0.2-1.7s-0.7-1.6-2.6-1.8c-1.4-0.2-7.9-0.2-8.8-0.2c-0.3,0-0.4,0.1-0.4,0.4 v4.4c0,1.7-0.1,7.6,0,8.6c0.1,3.5,2.5,4.1,7.4,4.1c1.3,0,3.5,0,4.8-0.6s1.9-1.6,2.3-3.6c0.1-0.6,0.2-0.8,0.5-0.8 s0.3,0.4,0.3,0.8s-0.4,3.8-0.7,4.9c-0.3,1.3-0.8,1.3-2.7,1.3c-7.6,0-12.6-0.3-14-0.3c-0.3,0-3.4,0.2-4.9,0.2 c-0.6,0-0.8-0.1-0.8-0.4c0-0.2,0.1-0.3,0.4-0.3c0.4,0,1.1-0.1,1.5-0.2c1-0.2,1.3-1.3,1.5-2.8c0.3-2.1,0.3-6.1,0.3-10.9 C150.8,51.1,150.6,33,150.5,31.4z"/>
		<!-- R --><path d="M175.3,31.4c-0.1-1.7-0.5-2.5-2.2-2.9c-0.4-0.1-1.3-0.1-1.7-0.1c-0.2,0-0.4-0.1-0.4-0.3c0-0.3,0.3-0.4,0.8-0.4 c2.3,0,5.5,0.1,5.7,0.1c0.6,0,4.4-0.1,6-0.1c3.2,0,6.6,0.3,9.2,2.2c1.3,0.9,3.5,3.4,3.5,6.9c0,3.7-1.6,7.5-6.1,11.7 c4.1,5.3,7.6,9.8,10.5,12.9c2.7,2.9,4.9,3.4,6.2,3.6c1,0.2,1.7,0.2,2,0.2c0.2,0,0.5,0.2,0.5,0.3c0,0.3-0.3,0.4-1.2,0.4h-3.6 c-2.8,0-4.1-0.3-5.4-1c-2.2-1.2-3.9-3.6-6.8-7.4c-2.1-2.8-4.5-6.1-5.5-7.4c-0.2-0.2-0.3-0.3-0.7-0.3l-6.2-0.1 c-0.3,0-0.4,0.1-0.4,0.4v1.2c0,4.8,0,8.8,0.3,10.9c0.1,1.5,0.4,2.6,2,2.8c0.7,0.1,1.8,0.2,2.3,0.2c0.3,0,0.4,0.2,0.4,0.3 c0,0.2-0.3,0.4-0.8,0.4c-2.8,0-6-0.2-6.2-0.2c-0.1,0-3.2,0.2-4.7,0.2c-0.6,0-0.8-0.1-0.8-0.4c0-0.2,0.1-0.3,0.4-0.3 c0.4,0,1.1-0.1,1.5-0.2c1-0.2,1.3-1.3,1.5-2.8c0.3-2.1,0.3-6.1,0.3-10.9C175.7,51.3,175.4,33,175.3,31.4z M179.4,46.7 c0,0.3,0.1,0.5,0.4,0.6c0.8,0.5,3.1,0.8,5.3,0.8c1.2,0,2.6-0.1,3.8-1c1.8-1.2,3.1-3.9,3.1-7.8c0-6.3-3.3-10.1-8.7-10.1 c-1.5,0-2.9,0.1-3.4,0.3c-0.3,0.1-0.4,0.3-0.4,0.6L179.4,46.7z"/>
</svg>